PathFileType	4	(X/Y/Z)	C:/Users/beibeiliu/ov580/test_trc/User2\sequence.26_training_dense_left.trc
DataRate	CameraRate	NumFrames	NumMarkers	Units	OrigDataRate	OrigDataStartFrame	OrigNumFrames
120	120	13	19	mm	120	28	109
Frame#	Time	ThumbCMC			ThumbMCP			ThumbIP			ThumbTip			IndexMCP			IndexPIP			IndexTip			MiddleMCP			MiddlePIP			MiddleTip			RingMCP			RingPIP			RingTip			PinkyMCP			PinkyPIP			PinkyTip			BackHand1			BackHand2			BackHand3	
		X0	Y0	Z0	X1	Y1	Z1	X2	Y2	Z2	X3	Y3	Z3	X4	Y4	Z4	X5	Y5	Z5	X6	Y6	Z6	X7	Y7	Z7	X8	Y8	Z8	X9	Y9	Z9	X10	Y10	Z10	X11	Y11	Z11	X12	Y12	Z12	X13	Y13	Z13	X14	Y14	Z14	X15	Y15	Z15	X16	Y16	Z16	X17	Y17	Z17	X18	Y18	Z18	
27	0.225	-287.432	32.1101	-28.4244	-300.532	49.4935	-51.7634	-319.935	59.4299	-80.9848	-328.818	69.6114	-102.467	-285.334	-12.7261	-98.1464	-277.066	-0.672742	-130.819	-263.335	28.8288	-117.886	-266.806	-22.169	-110.668	-251.343	0.284735	-133	-252.818	31.425	-103.733	-243.11	-28.0109	-103.248	-235.545	-5.4066	-127.669	-233.586	22.7875	-109.587	-219.511	-29.6504	-82.5424	-217.952	-35.3453	-107.143	-213.009	-44.2862	-132.595	-246.845	-20.6944	-42.2255	-241.632	-17.26	-8.70111	-276.283	-8.56843	-30.4346	
28	0.233333	-291.534	37.082	-31.4708	-294.34	50.5266	-54.9162	-311.181	63.9619	-82.7011	-318.3	72.9817	-104.934	-299.127	-17.0297	-96.0704	-288.757	-12.3474	-125.476	-271.166	22.3964	-115.945	-282.462	-28.2205	-102.246	-266.922	-10.5412	-132.09	-255.937	16.5345	-108.887	-261.189	-37.9447	-101.187	-253.604	-21.9802	-127.479	-245.134	8.39997	-114.081	-239.092	-40.0136	-78.9657	-235.456	-54.9139	-105.412	-235.165	-64.8094	-129.125	-256.046	-29.0325	-42.0288	-252.587	-18.7131	-5.50985	-284.928	-6.95541	-24.5226	
29	0.241667	-287.823	38.828	-31.2978	-292.032	48.3158	-61.1753	-307.635	65.5146	-87.0851	-312.013	72.5208	-112.431	-305.131	-20.1834	-90.8376	-297.753	-18.3383	-123.937	-279.147	14.6675	-117.978	-289.258	-38.9638	-99.2723	-275.063	-24.6989	-129.135	-262.335	8.65951	-107.218	-272.763	-46.7235	-94.1284	-263.819	-38.187	-122.615	-247.635	-7.7567	-115.557	-250.672	-48.433	-73.5702	-251.391	-69.5862	-97.3793	-252.601	-78.602	-122.32	-265.49	-27.4407	-35.4358	-258.683	-19.1714	-6.68303	-290.053	-4.47387	-22.7523	
30	0.25	-283.868	36.322	-36.9192	-289.047	52.2048	-65.7701	-294.197	63.1918	-92.7583	-299.862	70.1663	-119.905	-315.787	-16.2237	-95.6831	-303.385	-19.2722	-122.943	-276.352	10.5375	-117.021	-299.12	-37.5088	-95.6774	-283.495	-30.8605	-129.073	-263.167	-2.31264	-111.673	-286.244	-51.3049	-92.1025	-273.695	-46.2955	-121.81	-258.066	-14.5012	-116.204	-262.602	-56.1298	-70.4381	-266.951	-75.17	-91.0514	-270.659	-86.2813	-121.308	-272.341	-34.7336	-37.054	-263.667	-22.505	-5.69404	-292.923	-3.77399	-24.6857	
31	0.258333	-272.407	45.0303	-35.1909	-270.909	61.9109	-64.9681	-273.842	72.4451	-92.2395	-275.784	84.4802	-117.908	-317.319	1.24588	-96.0682	-309.697	-0.406513	-125.756	-276.557	16.8874	-121.845	-314.053	-20.5482	-100.619	-296.47	-18.5484	-130.613	-266.378	3.40546	-115.822	-300.676	-39.0852	-90.0928	-296.314	-38.4037	-119.886	-265.41	-16.179	-118.793	-278.821	-50.1118	-68.121	-294.452	-68.7744	-92.6177	-297.034	-71.7617	-118.552	-284.367	-25.9683	-37.5503	-273.425	-16.7108	-6.44321	-295.067	12.4447	-28.0957	
32	0.266667	-251.505	49.7059	-33.8609	-242.599	63.2113	-59.9697	-238.093	79.6169	-89.3569	-236.765	84.4905	-114.774	-308.166	35.9151	-90.6601	-306.279	25.8708	-123.747	-269.935	23.7394	-122.847	-316.153	10.2458	-96.1057	-305.94	4.62131	-130.669	-267.423	9.11352	-118.331	-315.053	-7.48972	-88.6034	-312.302	-12.5711	-119.433	-275.528	-8.50287	-119.781	-301.169	-32.09	-67.6558	-322.237	-34.3995	-92.2284	-323.147	-37.3269	-123.122	-294.35	-9.38809	-38.4689	-281.008	-5.76426	-6.2316	-285.55	24.1374	-26.0891	
33	0.275	-225.341	47.2211	-28.7866	-212.237	55.5364	-56.6115	-202.415	68.1776	-88.5199	-196.556	70.9634	-108.718	-286.494	58.556	-86.0877	-291.311	53.548	-118.361	-260.208	34.1322	-121.803	-304.491	46.268	-93.5929	-300.014	36.0308	-126.093	-265.765	18.4437	-118.694	-312.175	27.9823	-86.5453	-311.48	22.6027	-115.246	-276.989	6.27017	-116.14	-314.29	0.318452	-64.2783	-331.571	7.12665	-88.1364	-338.747	4.94049	-115.386	-291.718	17.0052	-35.6014	-282.931	11.8083	-6.3482	-270.943	41.3551	-23.103	
34	0.283333	-207.115	32.8093	-26.3885	-188.343	35.3346	-52.6417	-176.586	42.0964	-81.9848	-170.472	45.3297	-107.213	-255.038	70.2258	-83.5566	-262.748	63.8515	-117.782	-247.971	35.7734	-121.119	-279.719	65.8225	-91.3924	-279.465	49.6798	-123.604	-254.091	20.2925	-111.382	-296.209	49.9575	-81.2998	-293.329	45.3587	-114.229	-271.234	15.0929	-112.292	-304.085	23.7145	-58.6039	-323.738	41.4383	-81.6278	-331.514	46.4799	-107.967	-278.349	33.7635	-31.2537	-270.969	23.6016	1.25275	-249.484	46.3304	-20.4737	
35	0.291667	-191.465	21.1103	-22.934	-175.837	22.1684	-52.1741	-163.124	23.446	-79.4348	-153.883	22.9115	-104.315	-230.574	66.3489	-87.964	-234.7	55.4022	-122.01	-229.003	24.1027	-118.1	-260.136	63.4156	-93.7862	-257.315	44.7172	-123.727	-240.697	12.3184	-108.76	-277.594	53.7295	-83.9705	-275.665	42.2352	-115.559	-259.282	12.5573	-109.244	-293.347	38.8493	-60.2451	-307.344	53.0932	-82.0266	-318.525	59.7502	-101.209	-265.855	40.5788	-30.6344	-259.596	31.2519	2.30782	-230.023	43.1996	-18.6723	
36	0.3	-178.688	14.9381	-19.5803	-163.358	10.6786	-46.8871	-147.508	7.76907	-73.2823	-130.699	4.42792	-95.6306	-215.116	46.6018	-94.6791	-218.25	31.9621	-122.278	-213.549	-1.80112	-108.594	-238.511	45.5883	-98.4277	-237.004	21.7978	-125.164	-228.773	-9.52182	-99.6693	-259.548	38.3596	-89.3512	-258.499	22.0537	-116.42	-239.864	-9.70576	-99.3918	-276.799	31.4751	-68.1397	-288.073	40.6185	-89.6414	-302.754	50.0078	-109.114	-252.748	34.9109	-29.9673	-246.234	32.688	0.0857783	-216.049	39.2933	-20.3403	
37	0.308333	-171.986	10.1466	-19.4614	-152.273	4.14809	-43.5656	-133.453	-1.74533	-65.7162	-114.495	-6.31628	-83.901	-202.251	21.4935	-103.628	-200.228	-3.74023	-121.296	-191.453	-27.3299	-96.2167	-226.354	17.2031	-102.283	-221.27	-14.0809	-120.639	-211.846	-33.5222	-87.3362	-247.789	10.1834	-96.3779	-237.517	-16.2184	-115.998	-224.504	-37.8659	-86.967	-266.389	7.78513	-69.5958	-278.603	10.8384	-95.4432	-285.219	17.8377	-116.132	-239.182	23.9051	-34.1643	-242.322	25.1569	-3.28314	-204.859	33.2566	-26.3682	
38	0.316667	-172.241	13.7846	-19.6229	-145.11	9.47617	-37.7591	-122.443	6.69504	-61.1982	-107.117	-0.0495772	-75.4217	-193.115	3.22995	-102.146	-180.985	-26.7776	-115.856	-175.659	-42.2738	-84.0185	-212.118	-7.09071	-105.798	-201.428	-42.4748	-112.561	-190.751	-48.5052	-72.3614	-232.62	-19.0953	-101.102	-219.6	-46.8185	-110.085	-202.842	-55.5672	-78.705	-256.651	-19.4884	-77.6167	-268.649	-25.8271	-99.882	-279.257	-28.3938	-126.041	-240.079	6.46703	-40.8337	-238.084	16.2766	-11.306	-206.719	28.3148	-31.6979	
39	0.325	-178.291	21.9056	-21.9693	-153.239	21.375	-37.2792	-124.836	24.9802	-62.1455	-103.594	25.3161	-77.553	-186.562	-11.4282	-105.183	-168.975	-34.0946	-110.545	-156.621	-40.2314	-74.0589	-204.461	-29.3764	-105.749	-179.956	-55.6706	-101.755	-171.781	-53.0007	-65.5791	-217.968	-40.2147	-97.6687	-196.354	-64.6378	-98.9029	-182.329	-60.329	-63.9265	-245.536	-45.3137	-77.1116	-251.191	-58.9582	-99.6307	-253.391	-72.6956	-123.406	-237.401	-5.60718	-45.5535	-243.303	2.51909	-15.6325	-212.973	22.9933	-35.1915	
